<svg xmlns="http://www.w3.org/2000/svg" viewBox="0 0 1200 24" preserveAspectRatio="none">
  <path d="M0,24 L0,8 Q30,0 60,8 Q90,16 120,8 Q150,0 180,8 Q210,16 240,8 Q270,0 300,8 Q330,16 360,8 Q390,0 420,8 Q450,16 480,8 Q510,0 540,8 Q570,16 600,8 Q630,0 660,8 Q690,16 720,8 Q750,0 780,8 Q810,16 840,8 Q870,0 900,8 Q930,16 960,8 Q990,0 1020,8 Q1050,16 1080,8 Q1110,0 1140,8 Q1170,16 1200,8 L1200,24 Z" fill="#16a34a" opacity="0.15"/>
  <path d="M0,24 L0,12 Q40,4 80,12 Q120,20 160,12 Q200,4 240,12 Q280,20 320,12 Q360,4 400,12 Q440,20 480,12 Q520,4 560,12 Q600,20 640,12 Q680,4 720,12 Q760,20 800,12 Q840,4 880,12 Q920,20 960,12 Q1000,4 1040,12 Q1080,20 1120,12 Q1160,4 1200,12 L1200,24 Z" fill="#22c55e" opacity="0.2"/>
</svg>
